REM DIRINDEX 1\2\6,1\2\7,1\2\8,1\3\9,1\3\10,1\3\11,1\4\12,1\4\13,1\4\14,1\5\15,1\5\16,1\5\17,1\5\18
REM DIRNAME folder01,folder02,folder03,folder04,folder05,folder06,folder07,folder08,folder09,folder10,folder11,folder12,folder13,folder14,folder15,folder16,folder17,folder18
TITLE ""
FILE "" MP3
  TRACK 01 AUDIO
    TITLE "16:cjc019_7599"
    INDEX 01 00:00:00
  TRACK 02 AUDIO
    TITLE "0:"
    INDEX 01 00:01:26
  TRACK 03 AUDIO
    TITLE "18:cjc019_7600"
    INDEX 01 00:02:06
  TRACK 04 AUDIO
    TITLE "0:"
    INDEX 01 00:04:46
  TRACK 05 AUDIO
    TITLE "17:cjc019_7601"
    INDEX 01 00:05:22
  TRACK 06 AUDIO
    TITLE "0:"
    INDEX 01 00:06:59
  TRACK 07 AUDIO
    TITLE "16:cjc019_7602"
    INDEX 01 00:08:44
  TRACK 08 AUDIO
    TITLE "0:"
    INDEX 01 00:10:02
  TRACK 09 AUDIO
    TITLE "18:cjc019_7603"
    INDEX 01 00:10:59
  TRACK 10 AUDIO
    TITLE "0:"
    INDEX 01 00:14:23
  TRACK 11 AUDIO
    TITLE "17:cjc019_7604"
    INDEX 01 00:14:74
  TRACK 12 AUDIO
    TITLE "0:"
    INDEX 01 00:16:28
  TRACK 13 AUDIO
    TITLE "16:cjc019_7605"
    INDEX 01 00:18:23
  TRACK 14 AUDIO
    TITLE "0:"
    INDEX 01 00:19:46
  TRACK 15 AUDIO
    TITLE "18:cjc019_7606"
    INDEX 01 00:20:32
  TRACK 16 AUDIO
    TITLE "0:"
    INDEX 01 00:22:64
  TRACK 17 AUDIO
    TITLE "17:cjc019_7607"
    INDEX 01 00:23:40
  TRACK 18 AUDIO
    TITLE "0:"
    INDEX 01 00:24:67
  TRACK 19 AUDIO
    TITLE "16:cjc019_7608"
    INDEX 01 00:26:48
  TRACK 20 AUDIO
    TITLE "0:"
    INDEX 01 00:27:49
  TRACK 21 AUDIO
    TITLE "18:cjc019_7609"
    INDEX 01 00:28:39
  TRACK 22 AUDIO
    TITLE "0:"
    INDEX 01 00:32:01
  TRACK 23 AUDIO
    TITLE "17:cjc019_7610"
    INDEX 01 00:32:52
  TRACK 24 AUDIO
    TITLE "0:"
    INDEX 01 00:33:58
  TRACK 25 AUDIO
    TITLE "16:cjc019_7611"
    INDEX 01 00:35:47
  TRACK 26 AUDIO
    TITLE "0:"
    INDEX 01 00:36:74
  TRACK 27 AUDIO
    TITLE "18:cjc019_7612"
    INDEX 01 00:37:65
  TRACK 28 AUDIO
    TITLE "0:"
    INDEX 01 00:43:01
  TRACK 29 AUDIO
    TITLE "17:cjc019_7613"
    INDEX 01 00:43:58
  TRACK 30 AUDIO
    TITLE "0:"
    INDEX 01 00:45:10
  TRACK 31 AUDIO
    TITLE "16:cjc019_7614"
    INDEX 01 00:46:66
  TRACK 32 AUDIO
    TITLE "0:"
    INDEX 01 00:48:10
  TRACK 33 AUDIO
    TITLE "18:cjc019_7615"
    INDEX 01 00:48:71
  TRACK 34 AUDIO
    TITLE "0:"
    INDEX 01 00:50:11
  TRACK 35 AUDIO
    TITLE "17:cjc019_7616"
    INDEX 01 00:50:66
  TRACK 36 AUDIO
    TITLE "0:"
    INDEX 01 00:52:10
  TRACK 37 AUDIO
    TITLE "16:cjc019_7617"
    INDEX 01 00:53:70
  TRACK 38 AUDIO
    TITLE "0:"
    INDEX 01 00:55:26
  TRACK 39 AUDIO
    TITLE "18:cjc019_7618"
    INDEX 01 00:56:06
  TRACK 40 AUDIO
    TITLE "0:"
    INDEX 01 00:58:46
  TRACK 41 AUDIO
    TITLE "17:cjc019_7619"
    INDEX 01 00:59:20
  TRACK 42 AUDIO
    TITLE "0:"
    INDEX 01 01:00:59
  TRACK 43 AUDIO
    TITLE "16:cjc019_7620"
    INDEX 01 01:02:44
  TRACK 44 AUDIO
    TITLE "0:"
    INDEX 01 01:03:61
  TRACK 45 AUDIO
    TITLE "18:cjc019_7621"
    INDEX 01 01:04:43
  TRACK 46 AUDIO
    TITLE "0:"
    INDEX 01 01:08:07
  TRACK 47 AUDIO
    TITLE "17:cjc019_7622"
    INDEX 01 01:08:62
  TRACK 48 AUDIO
    TITLE "0:"
    INDEX 01 01:10:08
  TRACK 49 AUDIO
    TITLE "16:cjc019_7623"
    INDEX 01 01:11:66
  TRACK 50 AUDIO
    TITLE "0:"
    INDEX 01 01:13:20
  TRACK 51 AUDIO
    TITLE "18:cjc019_7624"
    INDEX 01 01:13:71
  TRACK 52 AUDIO
    TITLE "0:"
    INDEX 01 01:16:16
  TRACK 53 AUDIO
    TITLE "17:cjc019_7625"
    INDEX 01 01:16:71
  TRACK 54 AUDIO
    TITLE "0:"
    INDEX 01 01:18:25
  TRACK 55 AUDIO
    TITLE "16:cjc019_7626"
    INDEX 01 01:20:08
  TRACK 56 AUDIO
    TITLE "0:"
    INDEX 01 01:21:29
  TRACK 57 AUDIO
    TITLE "18:cjc019_7627"
    INDEX 01 01:22:07
  TRACK 58 AUDIO
    TITLE "0:"
    INDEX 01 01:23:16
  TRACK 59 AUDIO
    TITLE "17:cjc019_7628"
    INDEX 01 01:23:71
  TRACK 60 AUDIO
    TITLE "0:"
    INDEX 01 01:25:19
  TRACK 61 AUDIO
    TITLE "16:cjc019_7629"
    INDEX 01 01:27:04
  TRACK 62 AUDIO
    TITLE "0:"
    INDEX 01 01:28:10
  TRACK 63 AUDIO
    TITLE "18:cjc019_7630"
    INDEX 01 01:28:71
  TRACK 64 AUDIO
    TITLE "0:"
    INDEX 01 01:31:22
  TRACK 65 AUDIO
    TITLE "17:cjc019_7631"
    INDEX 01 01:32:02
  TRACK 66 AUDIO
    TITLE "0:"
    INDEX 01 01:33:05
  TRACK 67 AUDIO
    TITLE "16:cjc019_7632"
    INDEX 01 01:34:59
  TRACK 68 AUDIO
    TITLE "0:"
    INDEX 01 01:35:67
  TRACK 69 AUDIO
    TITLE "18:cjc019_7633"
    INDEX 01 01:36:54
  TRACK 70 AUDIO
    TITLE "0:"
    INDEX 01 01:39:53
  TRACK 71 AUDIO
    TITLE "17:cjc019_7634"
    INDEX 01 01:40:33
  TRACK 72 AUDIO
    TITLE "0:"
    INDEX 01 01:41:44
  TRACK 73 AUDIO
    TITLE "16:cjc019_7635"
    INDEX 01 01:43:27
  TRACK 74 AUDIO
    TITLE "0:"
    INDEX 01 01:44:52
  TRACK 75 AUDIO
    TITLE "18:cjc019_7636"
    INDEX 01 01:45:38
  TRACK 76 AUDIO
    TITLE "0:"
    INDEX 01 01:48:40
  TRACK 77 AUDIO
    TITLE "17:cjc019_7637"
    INDEX 01 01:49:22
  TRACK 78 AUDIO
    TITLE "0:"
    INDEX 01 01:50:49
  TRACK 79 AUDIO
    TITLE "16:cjc019_7638"
    INDEX 01 01:52:38
  TRACK 80 AUDIO
    TITLE "0:"
    INDEX 01 01:53:47
  TRACK 81 AUDIO
    TITLE "18:cjc019_7639"
    INDEX 01 01:54:29
  TRACK 82 AUDIO
    TITLE "0:"
    INDEX 01 01:56:43
  TRACK 83 AUDIO
    TITLE "17:cjc019_7640"
    INDEX 01 01:57:21
  TRACK 84 AUDIO
    TITLE "0:"
    INDEX 01 01:58:34
  TRACK 85 AUDIO
    TITLE "16:cjc019_7641"
    INDEX 01 02:00:16
  TRACK 86 AUDIO
    TITLE "0:"
    INDEX 01 02:01:23
  TRACK 87 AUDIO
    TITLE "18:cjc019_7642"
    INDEX 01 02:02:07
  TRACK 88 AUDIO
    TITLE "0:"
    INDEX 01 02:05:17
  TRACK 89 AUDIO
    TITLE "17:cjc019_7643"
    INDEX 01 02:05:70
  TRACK 90 AUDIO
    TITLE "0:"
    INDEX 01 02:07:04
  TRACK 91 AUDIO
    TITLE "16:cjc019_7644"
    INDEX 01 02:08:60
  TRACK 92 AUDIO
    TITLE "0:"
    INDEX 01 02:10:14
  TRACK 93 AUDIO
    TITLE "18:cjc019_7645"
    INDEX 01 02:10:71
  TRACK 94 AUDIO
    TITLE "0:"
    INDEX 01 02:12:07
  TRACK 95 AUDIO
    TITLE "17:cjc019_7646"
    INDEX 01 02:12:62
  TRACK 96 AUDIO
    TITLE "0:"
    INDEX 01 02:14:14
  TRACK 97 AUDIO
    TITLE "16:cjc019_7647"
    INDEX 01 02:15:70
  TRACK 98 AUDIO
    TITLE "0:"
    INDEX 01 02:16:73
  TRACK 99 AUDIO
    TITLE "18:cjc019_7648"
    INDEX 01 02:17:51
  TRACK 100 AUDIO
    TITLE "0:"
    INDEX 01 02:20:05
  TRACK 101 AUDIO
    TITLE "17:cjc019_7649"
    INDEX 01 02:20:56
  TRACK 102 AUDIO
    TITLE "0:"
    INDEX 01 02:21:61
  TRACK 103 AUDIO
    TITLE "16:cjc019_7650"
    INDEX 01 02:23:50
  TRACK 104 AUDIO
    TITLE "0:"
    INDEX 01 02:24:61
  TRACK 105 AUDIO
    TITLE "18:cjc019_7651"
    INDEX 01 02:25:47
  TRACK 106 AUDIO
    TITLE "0:"
    INDEX 01 02:30:25
  TRACK 107 AUDIO
    TITLE "17:cjc019_7652"
    INDEX 01 02:31:03
  TRACK 108 AUDIO
    TITLE "0:"
    INDEX 01 02:32:14
